<svg width="302.13125mm" height="78.29375mm" viewBox="0 0 302.13125 78.29375" xmlns="http://www.w3.org/2000/svg"><g id="svgGroup" stroke-linecap="round" fill-rule="evenodd" font-size="9pt" stroke="#000" stroke-width="0.25mm" fill="none" style="stroke:#000;stroke-width:0.25mm;fill:none"><path d="M 288.13125 13.5 A 0.5 0.5 0 0 0 288.63125 14 L 301.63125 14 A 0.5 0.5 0 0 0 302.13125 13.5 L 302.13125 0.5 A 0.5 0.5 0 0 0 301.63125 0 L 288.63125 0 A 0.5 0.5 0 0 0 288.13125 0.5 L 288.13125 13.5 Z M 2.38125 18.2625 A 0.5 0.5 0 0 0 2.88125 18.7625 L 15.88125 18.7625 A 0.5 0.5 0 0 0 16.38125 18.2625 L 16.38125 5.2625 A 0.5 0.5 0 0 0 15.88125 4.7625 L 2.88125 4.7625 A 0.5 0.5 0 0 0 2.38125 5.2625 L 2.38125 18.2625 Z M 26.19375 18.2625 A 0.5 0.5 0 0 0 26.69375 18.7625 L 39.69375 18.7625 A 0.5 0.5 0 0 0 40.19375 18.2625 L 40.19375 5.2625 A 0.5 0.5 0 0 0 39.69375 4.7625 L 26.69375 4.7625 A 0.5 0.5 0 0 0 26.19375 5.2625 L 26.19375 18.2625 Z M 45.24375 18.2625 A 0.5 0.5 0 0 0 45.74375 18.7625 L 58.74375 18.7625 A 0.5 0.5 0 0 0 59.24375 18.2625 L 59.24375 5.2625 A 0.5 0.5 0 0 0 58.74375 4.7625 L 45.74375 4.7625 A 0.5 0.5 0 0 0 45.24375 5.2625 L 45.24375 18.2625 Z M 64.29375 18.2625 A 0.5 0.5 0 0 0 64.79375 18.7625 L 77.79375 18.7625 A 0.5 0.5 0 0 0 78.29375 18.2625 L 78.29375 5.2625 A 0.5 0.5 0 0 0 77.79375 4.7625 L 64.79375 4.7625 A 0.5 0.5 0 0 0 64.29375 5.2625 L 64.29375 18.2625 Z M 83.34375 18.2625 A 0.5 0.5 0 0 0 83.84375 18.7625 L 96.84375 18.7625 A 0.5 0.5 0 0 0 97.34375 18.2625 L 97.34375 5.2625 A 0.5 0.5 0 0 0 96.84375 4.7625 L 83.84375 4.7625 A 0.5 0.5 0 0 0 83.34375 5.2625 L 83.34375 18.2625 Z M 102.39375 18.2625 A 0.5 0.5 0 0 0 102.89375 18.7625 L 115.89375 18.7625 A 0.5 0.5 0 0 0 116.39375 18.2625 L 116.39375 5.2625 A 0.5 0.5 0 0 0 115.89375 4.7625 L 102.89375 4.7625 A 0.5 0.5 0 0 0 102.39375 5.2625 L 102.39375 18.2625 Z M 121.44375 18.2625 A 0.5 0.5 0 0 0 121.94375 18.7625 L 134.94375 18.7625 A 0.5 0.5 0 0 0 135.44375 18.2625 L 135.44375 5.2625 A 0.5 0.5 0 0 0 134.94375 4.7625 L 121.94375 4.7625 A 0.5 0.5 0 0 0 121.44375 5.2625 L 121.44375 18.2625 Z M 140.49375 18.2625 A 0.5 0.5 0 0 0 140.99375 18.7625 L 153.99375 18.7625 A 0.5 0.5 0 0 0 154.49375 18.2625 L 154.49375 5.2625 A 0.5 0.5 0 0 0 153.99375 4.7625 L 140.99375 4.7625 A 0.5 0.5 0 0 0 140.49375 5.2625 L 140.49375 18.2625 Z M 159.54375 18.2625 A 0.5 0.5 0 0 0 160.04375 18.7625 L 173.04375 18.7625 A 0.5 0.5 0 0 0 173.54375 18.2625 L 173.54375 5.2625 A 0.5 0.5 0 0 0 173.04375 4.7625 L 160.04375 4.7625 A 0.5 0.5 0 0 0 159.54375 5.2625 L 159.54375 18.2625 Z M 178.59375 18.2625 A 0.5 0.5 0 0 0 179.09375 18.7625 L 192.09375 18.7625 A 0.5 0.5 0 0 0 192.59375 18.2625 L 192.59375 5.2625 A 0.5 0.5 0 0 0 192.09375 4.7625 L 179.09375 4.7625 A 0.5 0.5 0 0 0 178.59375 5.2625 L 178.59375 18.2625 Z M 197.64375 18.2625 A 0.5 0.5 0 0 0 198.14375 18.7625 L 211.14375 18.7625 A 0.5 0.5 0 0 0 211.64375 18.2625 L 211.64375 5.2625 A 0.5 0.5 0 0 0 211.14375 4.7625 L 198.14375 4.7625 A 0.5 0.5 0 0 0 197.64375 5.2625 L 197.64375 18.2625 Z M 216.69375 18.2625 A 0.5 0.5 0 0 0 217.19375 18.7625 L 230.19375 18.7625 A 0.5 0.5 0 0 0 230.69375 18.2625 L 230.69375 5.2625 A 0.5 0.5 0 0 0 230.19375 4.7625 L 217.19375 4.7625 A 0.5 0.5 0 0 0 216.69375 5.2625 L 216.69375 18.2625 Z M 235.74375 18.2625 A 0.5 0.5 0 0 0 236.24375 18.7625 L 249.24375 18.7625 A 0.5 0.5 0 0 0 249.74375 18.2625 L 249.74375 5.2625 A 0.5 0.5 0 0 0 249.24375 4.7625 L 236.24375 4.7625 A 0.5 0.5 0 0 0 235.74375 5.2625 L 235.74375 18.2625 Z M 259.55625 18.2625 A 0.5 0.5 0 0 0 260.05625 18.7625 L 273.05625 18.7625 A 0.5 0.5 0 0 0 273.55625 18.2625 L 273.55625 5.2625 A 0.5 0.5 0 0 0 273.05625 4.7625 L 260.05625 4.7625 A 0.5 0.5 0 0 0 259.55625 5.2625 L 259.55625 18.2625 Z M 4.7625 37.3125 A 0.5 0.5 0 0 0 5.2625 37.8125 L 18.2625 37.8125 A 0.5 0.5 0 0 0 18.7625 37.3125 L 18.7625 24.3125 A 0.5 0.5 0 0 0 18.2625 23.8125 L 5.2625 23.8125 A 0.5 0.5 0 0 0 4.7625 24.3125 L 4.7625 37.3125 Z M 30.95625 37.3125 A 0.5 0.5 0 0 0 31.45625 37.8125 L 44.45625 37.8125 A 0.5 0.5 0 0 0 44.95625 37.3125 L 44.95625 24.3125 A 0.5 0.5 0 0 0 44.45625 23.8125 L 31.45625 23.8125 A 0.5 0.5 0 0 0 30.95625 24.3125 L 30.95625 37.3125 Z M 50.00625 37.3125 A 0.5 0.5 0 0 0 50.50625 37.8125 L 63.50625 37.8125 A 0.5 0.5 0 0 0 64.00625 37.3125 L 64.00625 24.3125 A 0.5 0.5 0 0 0 63.50625 23.8125 L 50.50625 23.8125 A 0.5 0.5 0 0 0 50.00625 24.3125 L 50.00625 37.3125 Z M 69.05625 37.3125 A 0.5 0.5 0 0 0 69.55625 37.8125 L 82.55625 37.8125 A 0.5 0.5 0 0 0 83.05625 37.3125 L 83.05625 24.3125 A 0.5 0.5 0 0 0 82.55625 23.8125 L 69.55625 23.8125 A 0.5 0.5 0 0 0 69.05625 24.3125 L 69.05625 37.3125 Z M 88.10625 37.3125 A 0.5 0.5 0 0 0 88.60625 37.8125 L 101.60625 37.8125 A 0.5 0.5 0 0 0 102.10625 37.3125 L 102.10625 24.3125 A 0.5 0.5 0 0 0 101.60625 23.8125 L 88.60625 23.8125 A 0.5 0.5 0 0 0 88.10625 24.3125 L 88.10625 37.3125 Z M 107.15625 37.3125 A 0.5 0.5 0 0 0 107.65625 37.8125 L 120.65625 37.8125 A 0.5 0.5 0 0 0 121.15625 37.3125 L 121.15625 24.3125 A 0.5 0.5 0 0 0 120.65625 23.8125 L 107.65625 23.8125 A 0.5 0.5 0 0 0 107.15625 24.3125 L 107.15625 37.3125 Z M 126.20625 37.3125 A 0.5 0.5 0 0 0 126.70625 37.8125 L 139.70625 37.8125 A 0.5 0.5 0 0 0 140.20625 37.3125 L 140.20625 24.3125 A 0.5 0.5 0 0 0 139.70625 23.8125 L 126.70625 23.8125 A 0.5 0.5 0 0 0 126.20625 24.3125 L 126.20625 37.3125 Z M 145.25625 37.3125 A 0.5 0.5 0 0 0 145.75625 37.8125 L 158.75625 37.8125 A 0.5 0.5 0 0 0 159.25625 37.3125 L 159.25625 24.3125 A 0.5 0.5 0 0 0 158.75625 23.8125 L 145.75625 23.8125 A 0.5 0.5 0 0 0 145.25625 24.3125 L 145.25625 37.3125 Z M 164.30625 37.3125 A 0.5 0.5 0 0 0 164.80625 37.8125 L 177.80625 37.8125 A 0.5 0.5 0 0 0 178.30625 37.3125 L 178.30625 24.3125 A 0.5 0.5 0 0 0 177.80625 23.8125 L 164.80625 23.8125 A 0.5 0.5 0 0 0 164.30625 24.3125 L 164.30625 37.3125 Z M 183.35625 37.3125 A 0.5 0.5 0 0 0 183.85625 37.8125 L 196.85625 37.8125 A 0.5 0.5 0 0 0 197.35625 37.3125 L 197.35625 24.3125 A 0.5 0.5 0 0 0 196.85625 23.8125 L 183.85625 23.8125 A 0.5 0.5 0 0 0 183.35625 24.3125 L 183.35625 37.3125 Z M 202.40625 37.3125 A 0.5 0.5 0 0 0 202.90625 37.8125 L 215.90625 37.8125 A 0.5 0.5 0 0 0 216.40625 37.3125 L 216.40625 24.3125 A 0.5 0.5 0 0 0 215.90625 23.8125 L 202.90625 23.8125 A 0.5 0.5 0 0 0 202.40625 24.3125 L 202.40625 37.3125 Z M 221.45625 37.3125 A 0.5 0.5 0 0 0 221.95625 37.8125 L 234.95625 37.8125 A 0.5 0.5 0 0 0 235.45625 37.3125 L 235.45625 24.3125 A 0.5 0.5 0 0 0 234.95625 23.8125 L 221.95625 23.8125 A 0.5 0.5 0 0 0 221.45625 24.3125 L 221.45625 37.3125 Z M 252.4125 37.3125 A 0.5 0.5 0 0 0 252.9125 37.8125 L 265.9125 37.8125 A 0.5 0.5 0 0 0 266.4125 37.3125 L 266.4125 24.3125 A 0.5 0.5 0 0 0 265.9125 23.8125 L 252.9125 23.8125 A 0.5 0.5 0 0 0 252.4125 24.3125 L 252.4125 37.3125 Z M 288.13125 37.3125 A 0.5 0.5 0 0 0 288.63125 37.8125 L 301.63125 37.8125 A 0.5 0.5 0 0 0 302.13125 37.3125 L 302.13125 24.3125 A 0.5 0.5 0 0 0 301.63125 23.8125 L 288.63125 23.8125 A 0.5 0.5 0 0 0 288.13125 24.3125 L 288.13125 37.3125 Z M 9.525 56.3625 A 0.5 0.5 0 0 0 10.025 56.8625 L 23.025 56.8625 A 0.5 0.5 0 0 0 23.525 56.3625 L 23.525 43.3625 A 0.5 0.5 0 0 0 23.025 42.8625 L 10.025 42.8625 A 0.5 0.5 0 0 0 9.525 43.3625 L 9.525 56.3625 Z M 40.48125 56.3625 A 0.5 0.5 0 0 0 40.98125 56.8625 L 53.98125 56.8625 A 0.5 0.5 0 0 0 54.48125 56.3625 L 54.48125 43.3625 A 0.5 0.5 0 0 0 53.98125 42.8625 L 40.98125 42.8625 A 0.5 0.5 0 0 0 40.48125 43.3625 L 40.48125 56.3625 Z M 59.53125 56.3625 A 0.5 0.5 0 0 0 60.03125 56.8625 L 73.03125 56.8625 A 0.5 0.5 0 0 0 73.53125 56.3625 L 73.53125 43.3625 A 0.5 0.5 0 0 0 73.03125 42.8625 L 60.03125 42.8625 A 0.5 0.5 0 0 0 59.53125 43.3625 L 59.53125 56.3625 Z M 78.58125 56.3625 A 0.5 0.5 0 0 0 79.08125 56.8625 L 92.08125 56.8625 A 0.5 0.5 0 0 0 92.58125 56.3625 L 92.58125 43.3625 A 0.5 0.5 0 0 0 92.08125 42.8625 L 79.08125 42.8625 A 0.5 0.5 0 0 0 78.58125 43.3625 L 78.58125 56.3625 Z M 97.63125 56.3625 A 0.5 0.5 0 0 0 98.13125 56.8625 L 111.13125 56.8625 A 0.5 0.5 0 0 0 111.63125 56.3625 L 111.63125 43.3625 A 0.5 0.5 0 0 0 111.13125 42.8625 L 98.13125 42.8625 A 0.5 0.5 0 0 0 97.63125 43.3625 L 97.63125 56.3625 Z M 116.68125 56.3625 A 0.5 0.5 0 0 0 117.18125 56.8625 L 130.18125 56.8625 A 0.5 0.5 0 0 0 130.68125 56.3625 L 130.68125 43.3625 A 0.5 0.5 0 0 0 130.18125 42.8625 L 117.18125 42.8625 A 0.5 0.5 0 0 0 116.68125 43.3625 L 116.68125 56.3625 Z M 135.73125 56.3625 A 0.5 0.5 0 0 0 136.23125 56.8625 L 149.23125 56.8625 A 0.5 0.5 0 0 0 149.73125 56.3625 L 149.73125 43.3625 A 0.5 0.5 0 0 0 149.23125 42.8625 L 136.23125 42.8625 A 0.5 0.5 0 0 0 135.73125 43.3625 L 135.73125 56.3625 Z M 154.78125 56.3625 A 0.5 0.5 0 0 0 155.28125 56.8625 L 168.28125 56.8625 A 0.5 0.5 0 0 0 168.78125 56.3625 L 168.78125 43.3625 A 0.5 0.5 0 0 0 168.28125 42.8625 L 155.28125 42.8625 A 0.5 0.5 0 0 0 154.78125 43.3625 L 154.78125 56.3625 Z M 173.83125 56.3625 A 0.5 0.5 0 0 0 174.33125 56.8625 L 187.33125 56.8625 A 0.5 0.5 0 0 0 187.83125 56.3625 L 187.83125 43.3625 A 0.5 0.5 0 0 0 187.33125 42.8625 L 174.33125 42.8625 A 0.5 0.5 0 0 0 173.83125 43.3625 L 173.83125 56.3625 Z M 192.88125 56.3625 A 0.5 0.5 0 0 0 193.38125 56.8625 L 206.38125 56.8625 A 0.5 0.5 0 0 0 206.88125 56.3625 L 206.88125 43.3625 A 0.5 0.5 0 0 0 206.38125 42.8625 L 193.38125 42.8625 A 0.5 0.5 0 0 0 192.88125 43.3625 L 192.88125 56.3625 Z M 211.93125 56.3625 A 0.5 0.5 0 0 0 212.43125 56.8625 L 225.43125 56.8625 A 0.5 0.5 0 0 0 225.93125 56.3625 L 225.93125 43.3625 A 0.5 0.5 0 0 0 225.43125 42.8625 L 212.43125 42.8625 A 0.5 0.5 0 0 0 211.93125 43.3625 L 211.93125 56.3625 Z M 238.125 56.3625 A 0.5 0.5 0 0 0 238.625 56.8625 L 251.625 56.8625 A 0.5 0.5 0 0 0 252.125 56.3625 L 252.125 43.3625 A 0.5 0.5 0 0 0 251.625 42.8625 L 238.625 42.8625 A 0.5 0.5 0 0 0 238.125 43.3625 L 238.125 56.3625 Z M 288.13125 56.3625 A 0.5 0.5 0 0 0 288.63125 56.8625 L 301.63125 56.8625 A 0.5 0.5 0 0 0 302.13125 56.3625 L 302.13125 43.3625 A 0.5 0.5 0 0 0 301.63125 42.8625 L 288.63125 42.8625 A 0.5 0.5 0 0 0 288.13125 43.3625 L 288.13125 56.3625 Z M 266.7 58.74375 A 0.5 0.5 0 0 0 267.2 59.24375 L 280.2 59.24375 A 0.5 0.5 0 0 0 280.7 58.74375 L 280.7 45.74375 A 0.5 0.5 0 0 0 280.2 45.24375 L 267.2 45.24375 A 0.5 0.5 0 0 0 266.7 45.74375 L 266.7 58.74375 Z M 0 75.4125 A 0.5 0.5 0 0 0 0.5 75.9125 L 13.5 75.9125 A 0.5 0.5 0 0 0 14 75.4125 L 14 62.4125 A 0.5 0.5 0 0 0 13.5 61.9125 L 0.5 61.9125 A 0.5 0.5 0 0 0 0 62.4125 L 0 75.4125 Z M 23.8125 75.4125 A 0.5 0.5 0 0 0 24.3125 75.9125 L 37.3125 75.9125 A 0.5 0.5 0 0 0 37.8125 75.4125 L 37.8125 62.4125 A 0.5 0.5 0 0 0 37.3125 61.9125 L 24.3125 61.9125 A 0.5 0.5 0 0 0 23.8125 62.4125 L 23.8125 75.4125 Z M 45.24375 75.4125 A 0.5 0.5 0 0 0 45.74375 75.9125 L 58.74375 75.9125 A 0.5 0.5 0 0 0 59.24375 75.4125 L 59.24375 62.4125 A 0.5 0.5 0 0 0 58.74375 61.9125 L 45.74375 61.9125 A 0.5 0.5 0 0 0 45.24375 62.4125 L 45.24375 75.4125 Z M 114.3 75.4125 A 0.5 0.5 0 0 0 114.8 75.9125 L 127.8 75.9125 A 0.5 0.5 0 0 0 128.3 75.4125 L 128.3 62.4125 A 0.5 0.5 0 0 0 127.8 61.9125 L 114.8 61.9125 A 0.5 0.5 0 0 0 114.3 62.4125 L 114.3 75.4125 Z M 183.35625 75.4125 A 0.5 0.5 0 0 0 183.85625 75.9125 L 196.85625 75.9125 A 0.5 0.5 0 0 0 197.35625 75.4125 L 197.35625 62.4125 A 0.5 0.5 0 0 0 196.85625 61.9125 L 183.85625 61.9125 A 0.5 0.5 0 0 0 183.35625 62.4125 L 183.35625 75.4125 Z M 204.7875 75.4125 A 0.5 0.5 0 0 0 205.2875 75.9125 L 218.2875 75.9125 A 0.5 0.5 0 0 0 218.7875 75.4125 L 218.7875 62.4125 A 0.5 0.5 0 0 0 218.2875 61.9125 L 205.2875 61.9125 A 0.5 0.5 0 0 0 204.7875 62.4125 L 204.7875 75.4125 Z M 226.21875 75.4125 A 0.5 0.5 0 0 0 226.71875 75.9125 L 239.71875 75.9125 A 0.5 0.5 0 0 0 240.21875 75.4125 L 240.21875 62.4125 A 0.5 0.5 0 0 0 239.71875 61.9125 L 226.71875 61.9125 A 0.5 0.5 0 0 0 226.21875 62.4125 L 226.21875 75.4125 Z M 247.65 77.79375 A 0.5 0.5 0 0 0 248.15 78.29375 L 261.15 78.29375 A 0.5 0.5 0 0 0 261.65 77.79375 L 261.65 64.79375 A 0.5 0.5 0 0 0 261.15 64.29375 L 248.15 64.29375 A 0.5 0.5 0 0 0 247.65 64.79375 L 247.65 77.79375 Z M 266.7 77.79375 A 0.5 0.5 0 0 0 267.2 78.29375 L 280.2 78.29375 A 0.5 0.5 0 0 0 280.7 77.79375 L 280.7 64.79375 A 0.5 0.5 0 0 0 280.2 64.29375 L 267.2 64.29375 A 0.5 0.5 0 0 0 266.7 64.79375 L 266.7 77.79375 Z M 285.75 77.79375 A 0.5 0.5 0 0 0 286.25 78.29375 L 299.25 78.29375 A 0.5 0.5 0 0 0 299.75 77.79375 L 299.75 64.79375 A 0.5 0.5 0 0 0 299.25 64.29375 L 286.25 64.29375 A 0.5 0.5 0 0 0 285.75 64.79375 L 285.75 77.79375 Z M 244.0995 38.3125 A 0.5 0.5 0 0 0 244.5995 38.8125 L 250.3495 38.8125 A 0.5 0.5 0 0 0 250.8495 38.3125 L 250.8495 25.3125 A 0.5 0.5 0 0 0 250.3495 24.8125 L 244.5995 24.8125 A 0.5 0.5 0 0 0 244.0995 25.3125 L 244.0995 38.3125 Z M 267.9755 38.3125 A 0.5 0.5 0 0 0 268.4755 38.8125 L 274.2255 38.8125 A 0.5 0.5 0 0 0 274.7255 38.3125 L 274.7255 25.3125 A 0.5 0.5 0 0 0 274.2255 24.8125 L 268.4755 24.8125 A 0.5 0.5 0 0 0 267.9755 25.3125 L 267.9755 38.3125 Z M 1.212 57.3625 A 0.5 0.5 0 0 0 1.712 57.8625 L 7.462 57.8625 A 0.5 0.5 0 0 0 7.962 57.3625 L 7.962 44.3625 A 0.5 0.5 0 0 0 7.462 43.8625 L 1.712 43.8625 A 0.5 0.5 0 0 0 1.212 44.3625 L 1.212 57.3625 Z M 25.088 57.3625 A 0.5 0.5 0 0 0 25.588 57.8625 L 31.338 57.8625 A 0.5 0.5 0 0 0 31.838 57.3625 L 31.838 44.3625 A 0.5 0.5 0 0 0 31.338 43.8625 L 25.588 43.8625 A 0.5 0.5 0 0 0 25.088 44.3625 L 25.088 57.3625 Z M 67.925 76.4125 A 0.5 0.5 0 0 0 68.425 76.9125 L 74.175 76.9125 A 0.5 0.5 0 0 0 74.675 76.4125 L 74.675 63.4125 A 0.5 0.5 0 0 0 74.175 62.9125 L 68.425 62.9125 A 0.5 0.5 0 0 0 67.925 63.4125 L 67.925 76.4125 Z M 167.925 76.4125 A 0.5 0.5 0 0 0 168.425 76.9125 L 174.175 76.9125 A 0.5 0.5 0 0 0 174.675 76.4125 L 174.675 63.4125 A 0.5 0.5 0 0 0 174.175 62.9125 L 168.425 62.9125 A 0.5 0.5 0 0 0 167.925 63.4125 L 167.925 76.4125 Z" vector-effect="non-scaling-stroke"/></g></svg>